<svg version="1.1" xmlns="http://www.w3.org/2000/svg" viewBox="0 0 2507.990458564417 700.9343902638552" width="5015.980917128834" height="1401.8687805277104">
  <!-- svg-source:excalidraw -->
  
  <defs>
    <style class="style-fonts">
      @font-face {
        font-family: "Virgil";
        src: url("https://excalidraw.com/Virgil.woff2");
      }
      @font-face {
        font-family: "Cascadia";
        src: url("https://excalidraw.com/Cascadia.woff2");
      }
    </style>
  </defs>
  <rect x="0" y="0" width="2507.990458564417" height="700.9343902638552" fill="#ffffff"></rect><g stroke-linecap="round" transform="translate(278.8267521653828 116.64929516689244) rotate(0 118.5 35)"><path d="M17.5 0 M17.5 0 C97.22 0.31, 176.03 0.47, 219.5 0 M17.5 0 C84.14 0, 152.96 0.95, 219.5 0 M219.5 0 C230.58 -1.43, 235.49 6.68, 237 17.5 M219.5 0 C232.7 -1.25, 238.93 6.14, 237 17.5 M237 17.5 C237.52 32.44, 238 42.88, 237 52.5 M237 17.5 C237.81 28.77, 236.66 41.5, 237 52.5 M237 52.5 C237.74 65.61, 229.87 70.98, 219.5 70 M237 52.5 C237.33 66.23, 232.92 68.42, 219.5 70 M219.5 70 C152.32 70.57, 82.77 69.82, 17.5 70 M219.5 70 C142.79 70.98, 65.28 70.82, 17.5 70 M17.5 70 C3.98 70.71, -1.95 65.17, 0 52.5 M17.5 70 C3.54 68.44, 1.16 65.29, 0 52.5 M0 52.5 C0.09 43.96, -0.48 37.95, 0 17.5 M0 52.5 C0.17 38.59, 0.87 25.98, 0 17.5 M0 17.5 C1.47 5.49, 5.2 0.22, 17.5 0 M0 17.5 C1.44 5.72, 7.76 0.06, 17.5 0" stroke="#000000" stroke-width="1" fill="none"></path></g><g transform="translate(292.9568562303242 139.14929516689244) rotate(0 104.3698959350586 12.5)"><text x="104.3698959350586" y="0" font-family="Virgil, Segoe UI Emoji" font-size="20px" fill="#000000" text-anchor="middle" style="white-space: pre;" direction="ltr" dominant-baseline="text-before-edge">weather-station-mock</text></g><g stroke-linecap="round" transform="translate(232.50426959816485 26.15893243681421) rotate(0 165.50000000000003 193.78829041873314)"><path d="M32 0 M32 0 C114.96 0.03, 200.19 -0.44, 299 0 M32 0 C122.54 -2.06, 213.4 -1.85, 299 0 M299 0 C320.86 -1.29, 330.15 8.88, 331 32 M299 0 C321.06 0.78, 332.18 8.92, 331 32 M331 32 C331.31 114.57, 329.9 198.11, 331 355.58 M331 32 C331.99 160.37, 331.78 289.07, 331 355.58 M331 355.58 C330.62 378.01, 320.26 387.67, 299 387.58 M331 355.58 C331.1 375.69, 319.09 386.1, 299 387.58 M299 387.58 C243.33 386.3, 191.91 386.53, 32 387.58 M299 387.58 C200.96 389.14, 102.62 388.65, 32 387.58 M32 387.58 C9.27 387.41, -0.75 376.46, 0 355.58 M32 387.58 C12.79 386.12, 1.51 376.66, 0 355.58 M0 355.58 C-0.96 266.76, 0.66 175.42, 0 32 M0 355.58 C0.01 244, 0.49 133.26, 0 32 M0 32 C1.15 12.31, 11 -0.3, 32 0 M0 32 C-0.28 8.89, 10.46 -2.02, 32 0" stroke="#000000" stroke-width="1" fill="none"></path></g><g transform="translate(267.74025775090274 54.167900710081994) rotate(0 101.89993286132812 12.5)"><text x="0" y="0" font-family="Virgil, Segoe UI Emoji" font-size="20px" fill="#1971c2" text-anchor="start" style="white-space: pre;" direction="ltr" dominant-baseline="text-before-edge">    StatefulSet: 10 </text></g><g stroke-linecap="round" transform="translate(279.3910144691206 200.77750899902458) rotate(0 118.5 35)"><path d="M17.5 0 M17.5 0 C86.97 2.04, 153.34 2.27, 219.5 0 M17.5 0 C97.99 1.33, 179.78 0.14, 219.5 0 M219.5 0 C231.04 -0.51, 238.73 6.73, 237 17.5 M219.5 0 C232.19 -1.93, 236.1 6.46, 237 17.5 M237 17.5 C235.59 25.36, 236.23 32.32, 237 52.5 M237 17.5 C237.98 26.56, 236.42 34.82, 237 52.5 M237 52.5 C236.16 64.89, 231.78 68.5, 219.5 70 M237 52.5 C238.72 64.11, 231.8 69.48, 219.5 70 M219.5 70 C154.9 70.03, 86.39 71.65, 17.5 70 M219.5 70 C149.23 72.6, 79.11 72.3, 17.5 70 M17.5 70 C5 68.29, -0.59 64.06, 0 52.5 M17.5 70 C5.87 70.28, -0.86 62.83, 0 52.5 M0 52.5 C-1.6 42.48, -1.28 33.57, 0 17.5 M0 52.5 C0.82 40.7, 0.64 28.2, 0 17.5 M0 17.5 C-1.99 7.7, 5.21 1.74, 17.5 0 M0 17.5 C1.96 5.75, 7.41 0.42, 17.5 0" stroke="#000000" stroke-width="1" fill="none"></path></g><g transform="translate(293.521118534062 223.27750899902458) rotate(0 104.3698959350586 12.5)"><text x="104.3698959350586" y="0" font-family="Virgil, Segoe UI Emoji" font-size="20px" fill="#000000" text-anchor="middle" style="white-space: pre;" direction="ltr" dominant-baseline="text-before-edge">weather-station-mock</text></g><g stroke-linecap="round" transform="translate(282.3271245823963 283.36744978388697) rotate(0 118.5 35)"><path d="M17.5 0 M17.5 0 C71.98 -0.61, 125.03 0.42, 219.5 0 M17.5 0 C89.42 -0.68, 161.61 -0.35, 219.5 0 M219.5 0 C231.34 0.64, 237.57 4.03, 237 17.5 M219.5 0 C230.79 1.45, 237.16 7.77, 237 17.5 M237 17.5 C235.92 28.24, 236.33 35.74, 237 52.5 M237 17.5 C235.95 29.38, 236.93 42.81, 237 52.5 M237 52.5 C236.5 65.4, 229.53 71.08, 219.5 70 M237 52.5 C235.45 64.31, 231.95 69, 219.5 70 M219.5 70 C168.68 68.06, 119.7 67.64, 17.5 70 M219.5 70 C157.49 70.94, 96.22 70.72, 17.5 70 M17.5 70 C5.81 68.83, 0.37 65.61, 0 52.5 M17.5 70 C5.82 70.09, -0.72 63.95, 0 52.5 M0 52.5 C1.18 39.31, 2.1 27.76, 0 17.5 M0 52.5 C-0.31 43.06, 0.39 32.92, 0 17.5 M0 17.5 C0 6.29, 4.71 -1.48, 17.5 0 M0 17.5 C-1.54 7.79, 4.45 -1.42, 17.5 0" stroke="#000000" stroke-width="1" fill="none"></path></g><g transform="translate(296.45722864733773 305.86744978388697) rotate(0 104.3698959350586 12.5)"><text x="104.3698959350586" y="0" font-family="Virgil, Segoe UI Emoji" font-size="20px" fill="#000000" text-anchor="middle" style="white-space: pre;" direction="ltr" dominant-baseline="text-before-edge">weather-station-mock</text></g><g transform="translate(409.17599572183997 375.19326206434243) rotate(0 0.00004999999998744897 0.00005000000010113581)" stroke="none"><path fill="#1971c2" d="M 1.57,-1.57 Q 1.57,-1.57 1.77,-1.27 1.98,-0.98 2.09,-0.64 2.20,-0.29 2.19,0.05 2.18,0.41 2.05,0.75 1.93,1.09 1.70,1.37 1.48,1.65 1.18,1.84 0.87,2.04 0.52,2.12 0.18,2.21 -0.17,2.18 -0.53,2.15 -0.86,2.01 -1.19,1.87 -1.46,1.63 -1.73,1.39 -1.90,1.07 -2.08,0.76 -2.15,0.41 -2.21,0.05 -2.17,-0.29 -2.12,-0.65 -1.96,-0.97 -1.80,-1.29 -1.54,-1.54 -1.29,-1.80 -0.97,-1.96 -0.65,-2.12 -0.29,-2.17 0.06,-2.21 0.41,-2.15 0.76,-2.08 1.07,-1.90 1.39,-1.73 1.63,-1.46 1.87,-1.19 2.01,-0.86 2.15,-0.53 2.18,-0.17 2.21,0.18 2.12,0.52 2.03,0.87 1.84,1.18 1.65,1.48 1.37,1.70 1.09,1.93 0.75,2.05 0.41,2.18 0.05,2.19 -0.30,2.20 -0.64,2.09 -0.98,1.98 -1.27,1.77 -1.57,1.56 -1.57,1.57 -1.57,1.57 -1.73,1.35 -1.90,1.14 -2.01,0.90 -2.12,0.66 -2.16,0.39 -2.21,0.13 -2.20,-0.13 -2.18,-0.40 -2.10,-0.65 -2.02,-0.91 -1.88,-1.14 -1.74,-1.36 -1.55,-1.55 -1.36,-1.74 -1.14,-1.88 -0.91,-2.02 -0.65,-2.10 -0.40,-2.18 -0.13,-2.20 0.13,-2.21 0.39,-2.16 0.66,-2.12 0.90,-2.01 1.14,-1.90 1.35,-1.73 1.57,-1.57 1.57,-1.57 L 1.57,-1.57 Z"></path></g><g transform="translate(409.17599572183997 382.73413418652535) rotate(0 0.00004999999998744897 0.00005000000010113581)" stroke="none"><path fill="#1971c2" d="M 1.57,-1.57 Q 1.57,-1.57 1.77,-1.27 1.98,-0.98 2.09,-0.64 2.20,-0.29 2.19,0.05 2.18,0.41 2.05,0.75 1.93,1.09 1.70,1.37 1.48,1.65 1.18,1.84 0.87,2.04 0.52,2.12 0.18,2.21 -0.17,2.18 -0.53,2.15 -0.86,2.01 -1.19,1.87 -1.46,1.63 -1.73,1.39 -1.90,1.07 -2.08,0.76 -2.15,0.41 -2.21,0.05 -2.17,-0.29 -2.12,-0.65 -1.96,-0.97 -1.80,-1.29 -1.54,-1.54 -1.29,-1.80 -0.97,-1.96 -0.65,-2.12 -0.29,-2.17 0.06,-2.21 0.41,-2.15 0.76,-2.08 1.07,-1.90 1.39,-1.73 1.63,-1.46 1.87,-1.19 2.01,-0.86 2.15,-0.53 2.18,-0.17 2.21,0.18 2.12,0.52 2.03,0.87 1.84,1.18 1.65,1.48 1.37,1.70 1.09,1.93 0.75,2.05 0.41,2.18 0.05,2.19 -0.30,2.20 -0.64,2.09 -0.98,1.98 -1.27,1.77 -1.57,1.56 -1.57,1.57 -1.57,1.57 -1.73,1.35 -1.90,1.14 -2.01,0.90 -2.12,0.66 -2.16,0.39 -2.21,0.13 -2.20,-0.13 -2.18,-0.40 -2.10,-0.65 -2.02,-0.91 -1.88,-1.14 -1.74,-1.36 -1.55,-1.55 -1.36,-1.74 -1.14,-1.88 -0.91,-2.02 -0.65,-2.10 -0.40,-2.18 -0.13,-2.20 0.13,-2.21 0.39,-2.16 0.66,-2.12 0.90,-2.01 1.14,-1.90 1.35,-1.73 1.57,-1.57 1.57,-1.57 L 1.57,-1.57 Z"></path></g><g transform="translate(409.17599572183997 391.35225614282854) rotate(0 0.00004999999998744897 0.00005000000010113581)" stroke="none"><path fill="#1971c2" d="M 1.57,-1.57 Q 1.57,-1.57 1.77,-1.27 1.98,-0.98 2.09,-0.64 2.20,-0.29 2.19,0.05 2.18,0.41 2.05,0.75 1.93,1.09 1.70,1.37 1.48,1.65 1.18,1.84 0.87,2.04 0.52,2.12 0.18,2.21 -0.17,2.18 -0.53,2.15 -0.86,2.01 -1.19,1.87 -1.46,1.63 -1.73,1.39 -1.90,1.07 -2.08,0.76 -2.15,0.41 -2.21,0.05 -2.17,-0.29 -2.12,-0.65 -1.96,-0.97 -1.80,-1.29 -1.54,-1.54 -1.29,-1.80 -0.97,-1.96 -0.65,-2.12 -0.29,-2.17 0.06,-2.21 0.41,-2.15 0.76,-2.08 1.07,-1.90 1.39,-1.73 1.63,-1.46 1.87,-1.19 2.01,-0.86 2.15,-0.53 2.18,-0.17 2.21,0.18 2.12,0.52 2.03,0.87 1.84,1.18 1.65,1.48 1.37,1.70 1.09,1.93 0.75,2.05 0.41,2.18 0.05,2.19 -0.30,2.20 -0.64,2.09 -0.98,1.98 -1.27,1.77 -1.57,1.56 -1.57,1.57 -1.57,1.57 -1.73,1.35 -1.90,1.14 -2.01,0.90 -2.12,0.66 -2.16,0.39 -2.21,0.13 -2.20,-0.13 -2.18,-0.40 -2.10,-0.65 -2.02,-0.91 -1.88,-1.14 -1.74,-1.36 -1.55,-1.55 -1.36,-1.74 -1.14,-1.88 -0.91,-2.02 -0.65,-2.10 -0.40,-2.18 -0.13,-2.20 0.13,-2.21 0.39,-2.16 0.66,-2.12 0.90,-2.01 1.14,-1.90 1.35,-1.73 1.57,-1.57 1.57,-1.57 L 1.57,-1.57 Z"></path></g><g stroke-linecap="round" transform="translate(1188.3185171442524 60.31205467069594) rotate(0 266 153)"><path d="M32 0 M32 0 C163.39 1.6, 292.99 1.39, 500 0 M32 0 C180.87 1.27, 329.28 1.3, 500 0 M500 0 C520.78 0.35, 532.06 11.77, 532 32 M500 0 C520.74 1.31, 532.34 10.01, 532 32 M532 32 C532.56 95.18, 533.79 154.18, 532 274 M532 32 C531.4 85.11, 532.2 137.42, 532 274 M532 274 C530.8 295.26, 523.11 305.71, 500 306 M532 274 C532.56 293.94, 519.83 307.56, 500 306 M500 306 C351.93 306.11, 204.15 306.49, 32 306 M500 306 C390.99 306.92, 281.29 306.26, 32 306 M32 306 C10.17 304.51, -1.27 297, 0 274 M32 306 C11.25 304.89, 1.33 293.83, 0 274 M0 274 C-0.16 210.23, -0.74 147.03, 0 32 M0 274 C-0.42 183.76, 0.39 92.7, 0 32 M0 32 C-0.62 12.11, 9.87 0.79, 32 0 M0 32 C-0.66 11.87, 10.99 0.94, 32 0" stroke="#1e1e1e" stroke-width="1" fill="none"></path></g><g stroke-linecap="round" transform="translate(694.6514755862025 130.6537895771371) rotate(0 207.64492403998935 110)"><path d="M32 0 M32 0 C105.27 1.22, 176.53 3.07, 383.29 0 M32 0 C159.21 1.4, 286.41 2.14, 383.29 0 M383.29 0 C403.14 -0.61, 414.64 9.6, 415.29 32 M383.29 0 C403.37 -0.23, 417.22 11.15, 415.29 32 M415.29 32 C416.58 89.6, 417.27 149.43, 415.29 188 M415.29 32 C414.79 75.89, 416.2 119.5, 415.29 188 M415.29 188 C417.13 207.94, 405.49 218.5, 383.29 220 M415.29 188 C414.36 208.42, 402.57 220.76, 383.29 220 M383.29 220 C298.77 218.8, 215.35 218.77, 32 220 M383.29 220 C299.29 219.83, 214.58 219.85, 32 220 M32 220 C9.98 220.59, 0.64 210.67, 0 188 M32 220 C11.77 220.06, 2.29 210.26, 0 188 M0 188 C0 148.99, -1.02 109.64, 0 32 M0 188 C1.37 146.45, 1.05 106.49, 0 32 M0 32 C1.81 10.41, 12.42 0.56, 32 0 M0 32 C0.76 9.58, 10.58 -2.25, 32 0" stroke="#1e1e1e" stroke-width="1" fill="none"></path></g><g transform="translate(10 193.90790839460988) rotate(0 41.885986328125 22.5)"><text x="0" y="0" font-family="Virgil, Segoe UI Emoji" font-size="36px" fill="#1971c2" text-anchor="start" style="white-space: pre;" direction="ltr" dominant-baseline="text-before-edge">Pods</text></g><g transform="translate(1297.9312752205044 618.0439689351479) rotate(0 165.81593322753906 22.5)"><text x="0" y="0" font-family="Virgil, Segoe UI Emoji" font-size="36px" fill="#1971c2" text-anchor="start" style="white-space: pre;" direction="ltr" dominant-baseline="text-before-edge">Persistent Volumes</text></g><g stroke-linecap="round" transform="translate(1492.5501538023404 492.09512453471643) rotate(0 104.5 42.5)"><path d="M21.25 0 M21.25 0 C61.49 3.13, 101.39 0.54, 187.75 0 M21.25 0 C72.86 0.16, 121.93 0.69, 187.75 0 M187.75 0 C200.93 1.17, 208.5 6.72, 209 21.25 M187.75 0 C203.69 1.71, 211.07 8.39, 209 21.25 M209 21.25 C207.98 30.61, 209.53 45.14, 209 63.75 M209 21.25 C209.92 33.69, 208.59 44.38, 209 63.75 M209 63.75 C210.51 76.49, 203.33 84.37, 187.75 85 M209 63.75 C209.88 75.91, 202.5 87.23, 187.75 85 M187.75 85 C141.12 85.33, 91.54 84.95, 21.25 85 M187.75 85 C146.29 85.24, 104.75 86.57, 21.25 85 M21.25 85 C6.11 83.36, 0.64 76.71, 0 63.75 M21.25 85 C6.56 85.34, -0.55 79.35, 0 63.75 M0 63.75 C-0.1 54.33, -1.79 45.94, 0 21.25 M0 63.75 C0.58 46.72, 0.5 29.82, 0 21.25 M0 21.25 C1.54 5.73, 5.74 0.63, 21.25 0 M0 21.25 C-0.38 7.13, 9.26 -1.93, 21.25 0" stroke="#1e1e1e" stroke-width="1" fill="none"></path></g><g transform="translate(1530.10021025986 522.0951245347164) rotate(0 66.94994354248047 12.5)"><text x="66.94994354248047" y="0" font-family="Virgil, Segoe UI Emoji" font-size="20px" fill="#1e1e1e" text-anchor="middle" style="white-space: pre;" direction="ltr" dominant-baseline="text-before-edge">parquet-data</text></g><g transform="translate(847.6232533203147 151.12182408655235) rotate(0 52.03996276855469 12.5)"><text x="0" y="0" font-family="Virgil, Segoe UI Emoji" font-size="20px" fill="#1971c2" text-anchor="start" style="white-space: pre;" direction="ltr" dominant-baseline="text-before-edge">Kafka Pod</text></g><g stroke-linecap="round" transform="translate(749.5920390152771 198.5215770351142) rotate(0 155 21.5)"><path d="M10.75 0 M10.75 0 C109.68 -2.07, 207.12 0.13, 299.25 0 M10.75 0 C75.55 1.62, 139.42 1.31, 299.25 0 M299.25 0 C307.09 1, 311.2 3.57, 310 10.75 M299.25 0 C304.5 -1.04, 309.25 4.45, 310 10.75 M310 10.75 C310.95 16.95, 309.43 21.7, 310 32.25 M310 10.75 C309.13 18.31, 309.92 25.39, 310 32.25 M310 32.25 C310.6 40.3, 307.44 42.81, 299.25 43 M310 32.25 C312.1 40.08, 305.03 44.9, 299.25 43 M299.25 43 C233.95 42.33, 168.47 41.94, 10.75 43 M299.25 43 C203.17 43.39, 106.78 43.13, 10.75 43 M10.75 43 C4.44 44.04, 1.77 39.97, 0 32.25 M10.75 43 C5.33 44.3, -1.16 40.2, 0 32.25 M0 32.25 C1.38 23.97, -1.5 20.73, 0 10.75 M0 32.25 C-0.02 26.45, -0.18 20.32, 0 10.75 M0 10.75 C-0.14 4.6, 3.18 0.11, 10.75 0 M0 10.75 C0.16 1.44, 1.46 -0.21, 10.75 0" stroke="#1e1e1e" stroke-width="1" fill="none"></path></g><g transform="translate(759.1421793961365 207.5215770351142) rotate(0 145.44985961914062 12.5)"><text x="145.44985961914062" y="0" font-family="Virgil, Segoe UI Emoji" font-size="20px" fill="#1e1e1e" text-anchor="middle" style="white-space: pre;" direction="ltr" dominant-baseline="text-before-edge">weather-station-status topic</text></g><g stroke-linecap="round"><g transform="translate(571.8431863408225 221.14419340166296) rotate(0 86.00779315356448 -0.26443408254863243)"><path d="M0.97 0.14 C29.52 -0.12, 143.33 -0.61, 172 -0.8 M0.01 -0.83 C28.33 -1.03, 142.11 0.21, 170.87 0.32" stroke="#1e1e1e" stroke-width="1" fill="none"></path></g><g transform="translate(571.8431863408225 221.14419340166296) rotate(0 86.00779315356448 -0.26443408254863243)"><path d="M142.83 9.77 C151.21 7.63, 160.9 1.57, 171.81 0.04 M143.4 10.74 C149.69 7.7, 158.12 4.55, 170.64 0.16" stroke="#1e1e1e" stroke-width="1" fill="none"></path></g><g transform="translate(571.8431863408225 221.14419340166296) rotate(0 86.00779315356448 -0.26443408254863243)"><path d="M142.99 -10.75 C151.44 -5.63, 161.08 -4.43, 171.81 0.04 M143.56 -9.78 C149.65 -7.13, 158.04 -4.58, 170.64 0.16" stroke="#1e1e1e" stroke-width="1" fill="none"></path></g></g><mask></mask><g stroke-linecap="round" transform="translate(750.6301305450847 258.5500797510831) rotate(0 155 21.5)"><path d="M10.75 0 M10.75 0 C97.72 1.51, 182.18 1.06, 299.25 0 M10.75 0 C125.1 -1.5, 238.55 -2.59, 299.25 0 M299.25 0 C305.37 0.29, 310.89 4.51, 310 10.75 M299.25 0 C308.38 1.28, 310.34 5.48, 310 10.75 M310 10.75 C308.5 14.22, 309.51 20.37, 310 32.25 M310 10.75 C309.62 16.55, 310.55 20.38, 310 32.25 M310 32.25 C311.03 38.04, 305.55 42.51, 299.25 43 M310 32.25 C309.71 39.17, 304.45 43.34, 299.25 43 M299.25 43 C197.64 44.24, 94.85 44.5, 10.75 43 M299.25 43 C215.84 44.9, 131.54 45.17, 10.75 43 M10.75 43 C2.94 44.5, 0.83 38.07, 0 32.25 M10.75 43 C2.6 43.63, 0.94 38.81, 0 32.25 M0 32.25 C-1.28 25.24, -0.39 21.76, 0 10.75 M0 32.25 C-0.05 25.69, 0.37 19.37, 0 10.75 M0 10.75 C1.23 5.18, 2.61 1.39, 10.75 0 M0 10.75 C-0.55 5.78, 2.42 -1.98, 10.75 0" stroke="#1e1e1e" stroke-width="1" fill="none"></path></g><g transform="translate(780.9902684845379 267.5500797510831) rotate(0 124.63986206054688 12.5)"><text x="124.63986206054688" y="0" font-family="Virgil, Segoe UI Emoji" font-size="20px" fill="#1e1e1e" text-anchor="middle" style="white-space: pre;" direction="ltr" dominant-baseline="text-before-edge">humidity-notification topic</text></g><g stroke-linecap="round" transform="translate(1904.9052483450373 51.20459966585895) rotate(0 195.52380369301522 157.2808695330989)"><path d="M32 0 M32 0 C139.96 0.35, 248.63 0.94, 359.05 0 M32 0 C125.15 -1.51, 216.79 -2.56, 359.05 0 M359.05 0 C381.71 1.91, 389.97 11.77, 391.05 32 M359.05 0 C380.42 -0.57, 389.76 12.12, 391.05 32 M391.05 32 C393.63 85.42, 392.99 138.67, 391.05 282.56 M391.05 32 C392.16 130.08, 391.92 229.04, 391.05 282.56 M391.05 282.56 C390.52 303.87, 379.59 313.01, 359.05 314.56 M391.05 282.56 C391.09 305.72, 378.74 316.55, 359.05 314.56 M359.05 314.56 C261.34 315.92, 165.15 315.89, 32 314.56 M359.05 314.56 C289.44 315.01, 219.36 316, 32 314.56 M32 314.56 C10.45 316.3, 1.36 304.13, 0 282.56 M32 314.56 C11.71 314.25, 0.05 304.06, 0 282.56 M0 282.56 C-2.16 196.75, 0.66 111.8, 0 32 M0 282.56 C0.86 227.31, 0.22 172.5, 0 32 M0 32 C1.22 9.97, 11.59 0.01, 32 0 M0 32 C-0.39 8.47, 9.13 0.43, 32 0" stroke="#1e1e1e" stroke-width="1" fill="none"></path></g><g transform="translate(2025.900527458154 69.6336009205611) rotate(0 57.169952392578125 12.5)"><text x="0" y="0" font-family="Virgil, Segoe UI Emoji" font-size="20px" fill="#1971c2" text-anchor="start" style="white-space: pre;" direction="ltr" dominant-baseline="text-before-edge">Elastic Pod</text></g><g stroke-linecap="round" transform="translate(1961.2645511442092 106.26065005568535) rotate(0 126.04012093663505 31.240707502016903)"><path d="M15.62 0 M15.62 0 C58.48 1.36, 104.46 -1.74, 236.46 0 M15.62 0 C93.49 0.87, 172.35 0.68, 236.46 0 M236.46 0 C246.24 0.82, 251.76 5.97, 252.08 15.62 M236.46 0 C245.94 2.18, 251.22 4.97, 252.08 15.62 M252.08 15.62 C252.54 29.36, 249.98 37.81, 252.08 46.86 M252.08 15.62 C252.42 22.22, 253.17 27.69, 252.08 46.86 M252.08 46.86 C253.42 57.04, 246.73 62.72, 236.46 62.48 M252.08 46.86 C250.58 59.56, 247.14 62.68, 236.46 62.48 M236.46 62.48 C180.3 60.94, 122.38 62.62, 15.62 62.48 M236.46 62.48 C150.54 61.79, 64.75 62.68, 15.62 62.48 M15.62 62.48 C3.44 60.84, 1.99 56.07, 0 46.86 M15.62 62.48 C4.5 63.21, 0.46 59.52, 0 46.86 M0 46.86 C1.19 37.28, -0.36 31.97, 0 15.62 M0 46.86 C-0.13 37.5, 0.19 28.27, 0 15.62 M0 15.62 C1.93 5.64, 5.42 -1.88, 15.62 0 M0 15.62 C-1.75 3.45, 6.31 2.16, 15.62 0" stroke="#1e1e1e" stroke-width="1" fill="none"></path></g><g transform="translate(1984.6447599714693 125.00135755770225) rotate(0 102.659912109375 12.5)"><text x="102.659912109375" y="0" font-family="Virgil, Segoe UI Emoji" font-size="20px" fill="#1e1e1e" text-anchor="middle" style="white-space: pre;" direction="ltr" dominant-baseline="text-before-edge">ElasticSearch Server</text></g><g stroke-linecap="round" transform="translate(1964.4963828354635 190.0180472183347) rotate(0 126.04012093663505 31.240707502016903)"><path d="M15.62 0 M15.62 0 C64.47 0.88, 111.11 1.69, 236.46 0 M15.62 0 C80.02 -0.73, 144.18 0.28, 236.46 0 M236.46 0 C246.62 -1.08, 250.18 6.14, 252.08 15.62 M236.46 0 C245.97 -2.11, 253.32 3.28, 252.08 15.62 M252.08 15.62 C253.51 21.85, 253.31 30.52, 252.08 46.86 M252.08 15.62 C251.82 26.01, 251.19 38.81, 252.08 46.86 M252.08 46.86 C253.69 58.09, 245.74 62.68, 236.46 62.48 M252.08 46.86 C254.13 58.29, 245.03 63.6, 236.46 62.48 M236.46 62.48 C176.64 63.04, 113.52 62.63, 15.62 62.48 M236.46 62.48 C176.93 63.2, 117.3 62.54, 15.62 62.48 M15.62 62.48 C4.84 62.43, -0.49 59.17, 0 46.86 M15.62 62.48 C4.57 60.8, 1.09 58.38, 0 46.86 M0 46.86 C1.06 41.67, 1.48 31.43, 0 15.62 M0 46.86 C0.44 37.21, -0.17 26.89, 0 15.62 M0 15.62 C1.09 4.99, 4.83 -1.9, 15.62 0 M0 15.62 C1.48 5.96, 5.65 -2.09, 15.62 0" stroke="#1e1e1e" stroke-width="1" fill="none"></path></g><g transform="translate(2010.62656877454 208.7587547203516) rotate(0 79.9099349975586 12.5)"><text x="79.9099349975586" y="0" font-family="Virgil, Segoe UI Emoji" font-size="20px" fill="#1e1e1e" text-anchor="middle" style="white-space: pre;" direction="ltr" dominant-baseline="text-before-edge">watchdog loader</text></g><g stroke-linecap="round"><g transform="translate(1535.4144948818375 343.5176959018295) rotate(0 23.896625681094406 62.40361881224385)"><path d="M-0.51 -0.32 C7.28 20.61, 38.01 104.17, 45.93 124.84 M1.42 -1.54 C9.68 19.65, 40.8 105.35, 48.31 126.35" stroke="#1e1e1e" stroke-width="1" fill="none"></path></g><g transform="translate(1535.4144948818375 343.5176959018295) rotate(0 23.896625681094406 62.40361881224385)"><path d="M28.54 102.26 C33.27 109.42, 35.84 114.96, 49.62 126.65 M28.24 103.02 C33.31 107.93, 38.17 112.68, 48.12 125.65" stroke="#1e1e1e" stroke-width="1" fill="none"></path></g><g transform="translate(1535.4144948818375 343.5176959018295) rotate(0 23.896625681094406 62.40361881224385)"><path d="M47.84 95.29 C48.08 103.97, 46.2 111.12, 49.62 126.65 M47.54 96.05 C48.36 102.32, 49.03 108.58, 48.12 125.65" stroke="#1e1e1e" stroke-width="1" fill="none"></path></g></g><mask></mask><g mask="url(#mask-0nVZJ6GZvR8gSuFxnPH6w)" stroke-linecap="round"><g transform="translate(1664.6901365566505 488.8633339379089) rotate(0 144.06609089758877 -122.98802384445526)"><path d="M-0.15 1.04 C48.23 -39.75, 241.53 -204.37, 289.82 -245.47 M-1.69 0.54 C46.6 -40.49, 240.58 -205.68, 289 -247.01" stroke="#1e1e1e" stroke-width="1" fill="none"></path></g><g transform="translate(1664.6901365566505 488.8633339379089) rotate(0 144.06609089758877 -122.98802384445526)"><path d="M275.93 -220.5 C280.06 -227.61, 283.68 -232.59, 287.6 -247.39 M273.32 -220.27 C280.04 -229.15, 283.63 -239.65, 288.93 -246.84" stroke="#1e1e1e" stroke-width="1" fill="none"></path></g><g transform="translate(1664.6901365566505 488.8633339379089) rotate(0 144.06609089758877 -122.98802384445526)"><path d="M262.62 -236.12 C270.1 -239.17, 277.17 -240.09, 287.6 -247.39 M260.01 -235.88 C271.37 -239.29, 279.57 -244.37, 288.93 -246.84" stroke="#1e1e1e" stroke-width="1" fill="none"></path></g></g><mask id="mask-0nVZJ6GZvR8gSuFxnPH6w"><rect x="0" y="0" fill="#fff" width="2054.262386127981" height="835.449861426785"></rect><rect x="1717.3363382466127" y="353.0700701934711" fill="#000" width="184.27984619140625" height="25" opacity="1"></rect></mask><g transform="translate(2221.9629560682292 218.83492204635786) rotate(0 17.23632610150071 -41.47473503033598)" stroke="none"><path fill="#1e1e1e" d="M -1.79,-1.79 Q -1.79,-1.79 -1.18,-2.46 -0.57,-3.13 0.63,-3.99 1.84,-4.84 3.46,-5.61 5.08,-6.37 7.05,-7.33 9.02,-8.30 11.51,-9.74 14.00,-11.19 15.06,-11.56 16.12,-11.94 17.47,-12.80 18.82,-13.66 20.77,-14.56 22.73,-15.47 24.21,-15.67 25.69,-15.87 26.33,-17.08 26.97,-18.29 28.21,-20.58 29.46,-22.86 30.23,-24.47 31.01,-26.08 31.67,-27.54 32.34,-29.01 32.60,-30.53 32.86,-32.06 33.06,-33.98 33.27,-35.90 33.26,-37.06 33.24,-38.22 33.21,-39.31 33.18,-40.40 33.14,-41.48 33.10,-42.56 33.09,-43.95 33.09,-45.34 33.06,-46.54 33.04,-47.74 32.33,-49.50 31.62,-51.26 31.13,-52.71 30.63,-54.16 30.14,-55.29 29.64,-56.42 28.95,-57.31 28.26,-58.20 27.52,-59.39 26.78,-60.59 26.14,-62.13 25.50,-63.68 24.16,-64.87 22.81,-66.06 21.89,-66.69 20.98,-67.31 19.65,-68.28 18.31,-69.24 17.31,-70.06 16.30,-70.87 14.86,-70.96 13.42,-71.05 11.69,-71.58 9.96,-72.11 8.64,-72.09 7.33,-72.07 6.22,-72.07 5.11,-72.06 4.03,-72.04 2.95,-72.02 1.87,-72.01 0.79,-71.99 -0.30,-72.27 -1.39,-72.54 -1.06,-72.56 -0.73,-72.58 -1.15,-72.63 -1.56,-72.68 -1.95,-72.82 -2.34,-72.97 -2.68,-73.21 -3.02,-73.44 -3.29,-73.76 -3.57,-74.07 -3.76,-74.43 -3.96,-74.80 -4.05,-75.20 -4.15,-75.61 -4.15,-76.02 -4.15,-76.44 -4.05,-76.84 -3.96,-77.25 -3.76,-77.61 -3.57,-77.98 -3.29,-78.29 -3.02,-78.60 -2.68,-78.84 -2.33,-79.07 -1.95,-79.22 -1.56,-79.37 -1.15,-79.42 -0.73,-79.47 0.16,-80.96 1.06,-82.44 2.71,-83.59 4.35,-84.74 5.45,-84.85 6.55,-84.96 6.56,-85.09 6.58,-85.22 6.91,-85.47 7.24,-85.73 7.63,-85.89 8.01,-86.06 8.43,-86.13 8.84,-86.20 9.26,-86.17 9.68,-86.14 10.08,-86.01 10.48,-85.88 10.83,-85.66 11.19,-85.44 11.48,-85.14 11.77,-84.84 11.99,-84.47 12.20,-84.11 12.32,-83.71 12.44,-83.31 12.46,-82.89 12.48,-82.47 12.40,-82.06 12.32,-81.65 12.14,-81.27 11.96,-80.88 11.70,-80.56 11.44,-80.23 10.23,-79.28 9.02,-78.33 8.18,-77.54 7.35,-76.75 6.33,-76.22 5.31,-75.69 5.51,-74.30 5.70,-72.92 5.71,-71.33 5.71,-69.73 5.92,-68.78 6.13,-67.83 6.33,-67.29 6.53,-66.74 6.55,-66.17 6.57,-65.59 6.41,-65.04 6.24,-64.48 5.91,-64.01 5.57,-63.54 5.11,-63.20 4.64,-62.86 4.09,-62.69 3.54,-62.51 2.96,-62.52 2.38,-62.54 1.84,-62.73 1.30,-62.93 0.84,-63.28 0.39,-63.64 0.08,-64.13 -0.23,-64.61 -0.37,-65.17 -0.51,-65.73 -0.47,-66.31 -0.43,-66.88 -0.20,-67.42 0.01,-67.95 0.39,-68.38 0.78,-68.81 1.28,-69.10 1.78,-69.39 2.34,-69.50 2.91,-69.61 3.48,-69.54 4.06,-69.47 4.58,-69.21 5.09,-68.96 5.51,-68.56 5.92,-68.15 6.18,-67.63 6.44,-67.12 6.52,-66.55 6.60,-65.97 6.50,-65.41 6.39,-64.84 6.11,-64.33 5.83,-63.83 5.40,-63.44 4.98,-63.05 4.45,-62.82 3.92,-62.59 3.34,-62.54 2.77,-62.49 2.21,-62.62 1.64,-62.76 1.16,-63.06 0.67,-63.37 0.30,-63.82 -0.05,-64.27 -0.05,-64.27 -0.05,-64.27 -0.72,-67.54 -1.39,-70.82 -1.38,-71.92 -1.37,-73.01 -1.34,-74.20 -1.30,-75.38 -1.02,-77.01 -0.73,-78.63 -0.08,-79.70 0.55,-80.77 2.30,-81.52 4.04,-82.27 5.31,-83.74 6.58,-85.22 6.91,-85.47 7.24,-85.73 7.63,-85.89 8.01,-86.06 8.43,-86.13 8.84,-86.20 9.26,-86.17 9.68,-86.14 10.08,-86.01 10.48,-85.88 10.83,-85.66 11.19,-85.44 11.48,-85.14 11.77,-84.84 11.99,-84.47 12.20,-84.11 12.32,-83.71 12.44,-83.31 12.46,-82.89 12.48,-82.47 12.40,-82.06 12.32,-81.65 12.14,-81.27 11.96,-80.89 11.70,-80.56 11.44,-80.23 10.90,-80.04 10.36,-79.86 9.27,-79.18 8.18,-78.49 7.11,-78.04 6.04,-77.59 4.97,-76.53 3.91,-75.47 2.64,-74.39 1.38,-73.32 0.32,-72.95 -0.73,-72.58 -1.15,-72.63 -1.56,-72.68 -1.95,-72.82 -2.34,-72.97 -2.68,-73.21 -3.02,-73.44 -3.29,-73.75 -3.57,-74.07 -3.76,-74.43 -3.96,-74.80 -4.05,-75.20 -4.15,-75.61 -4.15,-76.02 -4.15,-76.44 -4.05,-76.84 -3.96,-77.25 -3.76,-77.61 -3.57,-77.98 -3.29,-78.29 -3.02,-78.60 -2.68,-78.84 -2.33,-79.07 -1.95,-79.22 -1.56,-79.37 -1.15,-79.42 -0.73,-79.47 0.57,-79.13 1.87,-78.80 2.96,-78.78 4.05,-78.76 5.18,-78.73 6.32,-78.71 7.67,-78.65 9.02,-78.59 11.01,-78.02 13.00,-77.45 14.36,-77.31 15.71,-77.16 17.35,-76.53 18.98,-75.90 20.62,-74.70 22.25,-73.50 23.82,-72.29 25.38,-71.08 26.65,-69.69 27.91,-68.31 29.01,-67.04 30.11,-65.76 30.66,-64.51 31.20,-63.26 31.80,-62.25 32.39,-61.25 33.38,-59.86 34.37,-58.48 34.92,-57.18 35.46,-55.88 35.96,-54.54 36.46,-53.20 36.93,-51.95 37.40,-50.70 37.72,-49.24 38.05,-47.78 38.02,-46.55 37.99,-45.33 37.98,-43.93 37.97,-42.53 37.91,-41.42 37.85,-40.32 37.78,-39.17 37.70,-38.03 37.60,-36.85 37.49,-35.67 37.47,-33.54 37.45,-31.41 37.18,-29.24 36.91,-27.07 36.33,-25.66 35.75,-24.26 35.06,-22.03 34.36,-19.81 33.69,-18.62 33.01,-17.43 32.30,-15.74 31.59,-14.06 30.15,-12.45 28.71,-10.84 27.54,-10.35 26.37,-9.86 24.81,-9.81 23.25,-9.76 21.56,-8.73 19.88,-7.70 18.13,-6.97 16.38,-6.23 15.28,-5.68 14.19,-5.13 12.90,-4.12 11.61,-3.11 10.56,-2.59 9.50,-2.06 8.49,-1.58 7.47,-1.10 6.30,-0.73 5.13,-0.36 4.09,0.14 3.05,0.65 2.42,1.22 1.79,1.79 1.55,1.98 1.31,2.17 1.03,2.30 0.75,2.42 0.45,2.48 0.15,2.53 -0.15,2.51 -0.45,2.50 -0.75,2.40 -1.04,2.31 -1.30,2.15 -1.56,2.00 -1.78,1.78 -2.00,1.56 -2.16,1.30 -2.31,1.04 -2.40,0.75 -2.50,0.45 -2.51,0.15 -2.53,-0.15 -2.48,-0.45 -2.42,-0.75 -2.30,-1.03 -2.17,-1.31 -1.98,-1.55 -1.79,-1.79 -1.79,-1.79 L -1.79,-1.79 Z"></path></g><g stroke-linecap="round" transform="translate(1212.5518429814017 495.3626952831969) rotate(0 104.5 42.5)"><path d="M21.25 0 M21.25 0 C86.13 0.92, 148.3 -1.04, 187.75 0 M21.25 0 C85.8 0.62, 151.33 1.73, 187.75 0 M187.75 0 C200.97 1.37, 208.22 7.15, 209 21.25 M187.75 0 C203.07 -2.16, 208.4 7.44, 209 21.25 M209 21.25 C210.76 33.4, 210.75 40.33, 209 63.75 M209 21.25 C209.91 32.79, 209.45 45.7, 209 63.75 M209 63.75 C209.54 77.73, 199.93 86.33, 187.75 85 M209 63.75 C210.23 78.43, 201.16 86.07, 187.75 85 M187.75 85 C124.28 87.81, 62.51 85.3, 21.25 85 M187.75 85 C152.3 85.63, 115.31 86.83, 21.25 85 M21.25 85 C7.49 85.18, 1.27 76.51, 0 63.75 M21.25 85 C5.96 85.77, -1.71 76.27, 0 63.75 M0 63.75 C1.41 47.5, -1.13 33.67, 0 21.25 M0 63.75 C-0.64 47.17, -0.87 29.37, 0 21.25 M0 21.25 C1.15 6.03, 5.85 -1.9, 21.25 0 M0 21.25 C-1.37 9.34, 9.33 0.48, 21.25 0" stroke="#1e1e1e" stroke-width="1" fill="none"></path></g><g transform="translate(1273.8718808231986 525.3626952831969) rotate(0 43.179962158203125 12.5)"><text x="43.179962158203125" y="0" font-family="Virgil, Segoe UI Emoji" font-size="20px" fill="#1e1e1e" text-anchor="middle" style="white-space: pre;" direction="ltr" dominant-baseline="text-before-edge">lsm-data</text></g><g stroke-linecap="round"><g transform="translate(1299.5614368211513 344.84915476269316) rotate(0 -1.9981728429836494 69.76311850882439)"><path d="M0.6 -0.25 C0.1 23.1, -3.25 116.31, -3.99 139.75 M-0.54 -1.42 C-1.07 22.1, -3.99 117.09, -4.6 140.95" stroke="#1e1e1e" stroke-width="1" fill="none"></path></g><g transform="translate(1299.5614368211513 344.84915476269316) rotate(0 -1.9981728429836494 69.76311850882439)"><path d="M-14.47 113.55 C-13.13 120.02, -9.98 123.51, -5.06 140.95 M-14.24 112.37 C-12 119.16, -10.84 124.08, -4.53 141.83" stroke="#1e1e1e" stroke-width="1" fill="none"></path></g><g transform="translate(1299.5614368211513 344.84915476269316) rotate(0 -1.9981728429836494 69.76311850882439)"><path d="M6.05 114.13 C2.86 120.58, 1.49 123.94, -5.06 140.95 M6.28 112.95 C4.24 119.81, 1.12 124.61, -4.53 141.83" stroke="#1e1e1e" stroke-width="1" fill="none"></path></g></g><mask></mask><g stroke-linecap="round"><g transform="translate(1072.229949361966 197.69073731979825) rotate(0 56.85704713100483 -22.02187834306801)"><path d="M-1.04 -0.41 C18.04 -7.31, 95.5 -34.9, 114.76 -41.85 M0.61 -1.68 C19.51 -8.88, 94.98 -36.55, 113.81 -43.63" stroke="#1e1e1e" stroke-width="1" fill="none"></path></g><g transform="translate(1072.229949361966 197.69073731979825) rotate(0 56.85704713100483 -22.02187834306801)"><path d="M90.26 -24.2 C99.51 -30.74, 106.56 -37.93, 115.04 -43.18 M91.76 -23.53 C99.54 -32.04, 106.37 -38.3, 114.72 -43.48" stroke="#1e1e1e" stroke-width="1" fill="none"></path></g><g transform="translate(1072.229949361966 197.69073731979825) rotate(0 56.85704713100483 -22.02187834306801)"><path d="M83.12 -43.45 C94.62 -43.67, 103.98 -44.63, 115.04 -43.18 M84.62 -42.77 C94.79 -44.68, 104.09 -44.26, 114.72 -43.48" stroke="#1e1e1e" stroke-width="1" fill="none"></path></g></g><mask></mask><g stroke-linecap="round"><g transform="translate(1225.3424677928704 222.76755049353415) rotate(0 -76.66998683682232 22.240509891133115)"><path d="M-0.32 -0.01 C-26.21 7.43, -128.63 36.67, -154.37 44.08 M1.72 -1.06 C-24.37 6.62, -128.86 37.71, -155.06 45.54" stroke="#1e1e1e" stroke-width="1" fill="none"></path></g><g transform="translate(1225.3424677928704 222.76755049353415) rotate(0 -76.66998683682232 22.240509891133115)"><path d="M-130.99 28.5 C-140.45 34.58, -148.94 41.69, -153.21 47.18 M-130.84 27.23 C-136.84 32.6, -144.74 38.01, -154.24 45.36" stroke="#1e1e1e" stroke-width="1" fill="none"></path></g><g transform="translate(1225.3424677928704 222.76755049353415) rotate(0 -76.66998683682232 22.240509891133115)"><path d="M-125.13 48.16 C-136.72 46.76, -147.44 46.4, -153.21 47.18 M-124.98 46.89 C-132.63 47, -142.11 47.11, -154.24 45.36" stroke="#1e1e1e" stroke-width="1" fill="none"></path></g></g><mask></mask><g transform="translate(2313.5305891796515 120.63221322467098) rotate(0 92.22993469238281 100)"><text x="0" y="0" font-family="Virgil, Segoe UI Emoji" font-size="20px" fill="#1971c2" text-anchor="start" style="white-space: pre;" direction="ltr" dominant-baseline="text-before-edge">Node Port: 30001</text><text x="0" y="25" font-family="Virgil, Segoe UI Emoji" font-size="20px" fill="#1971c2" text-anchor="start" style="white-space: pre;" direction="ltr" dominant-baseline="text-before-edge"></text><text x="0" y="50" font-family="Virgil, Segoe UI Emoji" font-size="20px" fill="#1971c2" text-anchor="start" style="white-space: pre;" direction="ltr" dominant-baseline="text-before-edge"></text><text x="0" y="75" font-family="Virgil, Segoe UI Emoji" font-size="20px" fill="#1971c2" text-anchor="start" style="white-space: pre;" direction="ltr" dominant-baseline="text-before-edge"></text><text x="0" y="100" font-family="Virgil, Segoe UI Emoji" font-size="20px" fill="#1971c2" text-anchor="start" style="white-space: pre;" direction="ltr" dominant-baseline="text-before-edge"></text><text x="0" y="125" font-family="Virgil, Segoe UI Emoji" font-size="20px" fill="#1971c2" text-anchor="start" style="white-space: pre;" direction="ltr" dominant-baseline="text-before-edge"></text><text x="0" y="150" font-family="Virgil, Segoe UI Emoji" font-size="20px" fill="#1971c2" text-anchor="start" style="white-space: pre;" direction="ltr" dominant-baseline="text-before-edge"></text><text x="0" y="175" font-family="Virgil, Segoe UI Emoji" font-size="20px" fill="#1971c2" text-anchor="start" style="white-space: pre;" direction="ltr" dominant-baseline="text-before-edge">Node Port: 30002</text></g><g transform="translate(1717.3363382466127 353.0700701934711) rotate(0 91.41988920762674 12.805239899982553)"><text x="92.13992309570312" y="0" font-family="Virgil, Segoe UI Emoji" font-size="20px" fill="#1e1e1e" text-anchor="middle" style="white-space: pre;" direction="ltr" dominant-baseline="text-before-edge">Parquet Connector</text></g><g stroke-linecap="round" transform="translate(1963.732598140527 270.21255844582356) rotate(0 126.04012093663505 31.240707502016903)"><path d="M15.62 0 M15.62 0 C61.44 -0.36, 108.5 1.18, 236.46 0 M15.62 0 C66.27 1.3, 116.12 1.46, 236.46 0 M236.46 0 C245.01 -1.51, 252.82 5.63, 252.08 15.62 M236.46 0 C245.63 -1.91, 253.21 5.54, 252.08 15.62 M252.08 15.62 C250.08 23.43, 250.67 36.83, 252.08 46.86 M252.08 15.62 C252.86 26.35, 251.82 37.94, 252.08 46.86 M252.08 46.86 C251.01 55.73, 245 63.95, 236.46 62.48 M252.08 46.86 C253.24 58.25, 248.54 63.85, 236.46 62.48 M236.46 62.48 C174.8 62, 112.03 62.78, 15.62 62.48 M236.46 62.48 C151.04 62.44, 67.54 63.38, 15.62 62.48 M15.62 62.48 C3.6 63.44, -1 59.14, 0 46.86 M15.62 62.48 C4.05 64.74, -1.96 58.3, 0 46.86 M0 46.86 C-1.98 41.03, -0.8 33.28, 0 15.62 M0 46.86 C-0.27 35.04, 0.01 24.8, 0 15.62 M0 15.62 C0.28 4.07, 6.1 0.02, 15.62 0 M0 15.62 C-1.11 4.97, 4.14 1.68, 15.62 0" stroke="#1e1e1e" stroke-width="1" fill="none"></path></g><g transform="translate(2027.5127703466933 288.95326594784046) rotate(0 62.25994873046875 12.5)"><text x="62.25994873046875" y="0" font-family="Virgil, Segoe UI Emoji" font-size="20px" fill="#1e1e1e" text-anchor="middle" style="white-space: pre;" direction="ltr" dominant-baseline="text-before-edge">KibanaServer</text></g><g transform="translate(1373.5312471841628 10) rotate(0 91.98993682861328 12.5)"><text x="0" y="0" font-family="Virgil, Segoe UI Emoji" font-size="20px" fill="#1971c2" text-anchor="start" style="white-space: pre;" direction="ltr" dominant-baseline="text-before-edge">Node Port: 30000</text></g><g transform="translate(1373.018064050891 82.40512396529266) rotate(0 77.27993774414062 12.5)"><text x="0" y="0" font-family="Virgil, Segoe UI Emoji" font-size="20px" fill="#1971c2" text-anchor="start" style="white-space: pre;" direction="ltr" dominant-baseline="text-before-edge">Central Station</text></g><g stroke-linecap="round" transform="translate(1231.0030534815098 273.12071996824443) rotate(0 102.5 31.5)"><path d="M15.75 0 M15.75 0 C81.16 -0.18, 144.99 0.96, 189.25 0 M15.75 0 C67.22 0.07, 120.25 0.17, 189.25 0 M189.25 0 C201.62 -0.26, 204.6 4.77, 205 15.75 M189.25 0 C197.79 0.22, 204.08 3.85, 205 15.75 M205 15.75 C204.85 25.1, 206.85 30.75, 205 47.25 M205 15.75 C205.79 25.84, 205.81 36.9, 205 47.25 M205 47.25 C206.56 57.97, 201.34 62.97, 189.25 63 M205 47.25 C205.77 57.37, 197.86 63.1, 189.25 63 M189.25 63 C148.48 64.37, 104.57 64.52, 15.75 63 M189.25 63 C138.74 64.83, 90.78 63.37, 15.75 63 M15.75 63 C4.38 64.07, 1.26 59.25, 0 47.25 M15.75 63 C5.68 61.96, -1.35 58.82, 0 47.25 M0 47.25 C-0.95 40.94, 1.55 33.07, 0 15.75 M0 47.25 C-0.38 35.67, 0.08 25.48, 0 15.75 M0 15.75 C0.98 5.35, 6.81 0.71, 15.75 0 M0 15.75 C-0.3 5.3, 4.17 0.1, 15.75 0" stroke="#1e1e1e" stroke-width="1" fill="none"></path></g><g transform="translate(1261.2331102442051 292.12071996824443) rotate(0 72.26994323730469 12.5)"><text x="72.26994323730469" y="0" font-family="Virgil, Segoe UI Emoji" font-size="20px" fill="#1e1e1e" text-anchor="middle" style="white-space: pre;" direction="ltr" dominant-baseline="text-before-edge">BitCask Engine</text></g><g stroke-linecap="round" transform="translate(1476.9575290346768 272.4812688274178) rotate(0 103.5 31.5)"><path d="M15.75 0 M15.75 0 C56.6 -0.59, 99.23 2.31, 191.25 0 M15.75 0 C79.29 -0.01, 143.62 -1.35, 191.25 0 M191.25 0 C201.47 1.28, 207.98 5.35, 207 15.75 M191.25 0 C203.54 0.82, 206.7 5.3, 207 15.75 M207 15.75 C205.91 22.97, 206.73 30.57, 207 47.25 M207 15.75 C207.26 27.31, 206.71 40.51, 207 47.25 M207 47.25 C205.38 59.02, 201.89 63.29, 191.25 63 M207 47.25 C208.12 59.41, 201.19 62.35, 191.25 63 M191.25 63 C131.67 61.85, 69.9 61.83, 15.75 63 M191.25 63 C144.25 62.17, 96.57 61.08, 15.75 63 M15.75 63 C7.15 61.13, 0.51 56.22, 0 47.25 M15.75 63 C5.07 64.69, -0.84 55.64, 0 47.25 M0 47.25 C-0.49 39.63, 0.81 28.49, 0 15.75 M0 47.25 C0.38 36.54, -1.07 26.28, 0 15.75 M0 15.75 C0.87 5.72, 4.5 0.07, 15.75 0 M0 15.75 C0.75 6.64, 4.86 -0.21, 15.75 0" stroke="#1e1e1e" stroke-width="1" fill="none"></path></g><g transform="translate(1506.2475909853604 291.4812688274178) rotate(0 74.2099380493164 12.5)"><text x="74.2099380493164" y="0" font-family="Virgil, Segoe UI Emoji" font-size="20px" fill="#1e1e1e" text-anchor="middle" style="white-space: pre;" direction="ltr" dominant-baseline="text-before-edge">Parquet Writer</text></g><g stroke-linecap="round" transform="translate(1230.0732982297166 165.84882844141202) rotate(0 109 31.5)"><path d="M15.75 0 M15.75 0 C71.41 1.05, 125.64 -0.15, 202.25 0 M15.75 0 C87.98 1.48, 157.28 0.05, 202.25 0 M202.25 0 C213.55 1.15, 216.59 5.82, 218 15.75 M202.25 0 C212.73 0.12, 218.66 3.6, 218 15.75 M218 15.75 C219.7 25.59, 216.28 33.62, 218 47.25 M218 15.75 C217.05 24.97, 218.35 33.23, 218 47.25 M218 47.25 C216.2 57.67, 214.41 61.15, 202.25 63 M218 47.25 C215.85 56.43, 211.98 60.84, 202.25 63 M202.25 63 C140.04 60.91, 75.28 63.19, 15.75 63 M202.25 63 C130.13 63.83, 57.22 63.77, 15.75 63 M15.75 63 C3.62 61.44, -1.19 59.71, 0 47.25 M15.75 63 C5.2 63.57, 0.27 59.86, 0 47.25 M0 47.25 C1.83 37.94, 1.05 30.76, 0 15.75 M0 47.25 C-0.78 41.05, -0.45 33.05, 0 15.75 M0 15.75 C-1.21 7.03, 4.96 1.05, 15.75 0 M0 15.75 C1.75 3.93, 7.44 -1, 15.75 0" stroke="#1e1e1e" stroke-width="1" fill="none"></path></g><g transform="translate(1251.2433879513962 184.84882844141202) rotate(0 87.82991027832031 12.5)"><text x="87.82991027832031" y="0" font-family="Virgil, Segoe UI Emoji" font-size="20px" fill="#1e1e1e" text-anchor="middle" style="white-space: pre;" direction="ltr" dominant-baseline="text-before-edge">Humidity Detector</text></g><g stroke-linecap="round" transform="translate(1172.514390808666 420.5390524147665) rotate(0 303.8464294149212 135.19766892454436)"><path d="M32 0 M32 0 C243.96 1.17, 454.53 1.24, 575.69 0 M32 0 C220.19 -1.39, 408.7 -1.77, 575.69 0 M575.69 0 C595.82 0.73, 608.55 9.01, 607.69 32 M575.69 0 C595.61 -2.22, 609.64 11.23, 607.69 32 M607.69 32 C606.42 89.26, 605.79 144.12, 607.69 238.4 M607.69 32 C608.57 114.79, 609.15 195.91, 607.69 238.4 M607.69 238.4 C606.44 261.5, 598.37 269.59, 575.69 270.4 M607.69 238.4 C605.88 260.95, 596.24 269.12, 575.69 270.4 M575.69 270.4 C375.21 272.33, 174.72 272.56, 32 270.4 M575.69 270.4 C449.21 268.57, 323.01 268.15, 32 270.4 M32 270.4 C10.08 269.89, -1.72 258.51, 0 238.4 M32 270.4 C10.76 270.46, 0.83 257.83, 0 238.4 M0 238.4 C2.18 161.85, 0.96 83.81, 0 32 M0 238.4 C0.44 178.93, -1 117.65, 0 32 M0 32 C-0.9 9.58, 12.5 -1.41, 32 0 M0 32 C-1.67 12.06, 10.89 -0.1, 32 0" stroke="#1e1e1e" stroke-width="1" fill="none"></path></g></svg>